<mxfile host="app.diagrams.net" modified="2023-02-21T13:40:13.746Z" agent="5.0 (Macintosh; Intel Mac OS X 10_15_7) AppleWebKit/537.36 (KHTML, like Gecko) Chrome/112.0.0.0 Safari/537.36" etag="cgy7v9e-sA18u-lGO2hS" version="20.8.21" type="github">
  <diagram name="Page-1" id="awNu_3DlOISEKZ05TdpL">
    <mxGraphModel dx="2044" dy="740" grid="1" gridSize="10" guides="1" tooltips="1" connect="1" arrows="1" fold="1" page="1" pageScale="1" pageWidth="850" pageHeight="1100" math="0" shadow="0">
      <root>
        <mxCell id="0" />
        <mxCell id="1" parent="0" />
        <mxCell id="tLa2hY0cK8lAH2d8xIMi-19" value="" style="edgeStyle=none;rounded=0;orthogonalLoop=1;jettySize=auto;html=1;shape=link;" parent="1" edge="1">
          <mxGeometry relative="1" as="geometry">
            <mxPoint x="69.28571428571422" y="370" as="sourcePoint" />
            <mxPoint x="200.71428571428578" y="450" as="targetPoint" />
          </mxGeometry>
        </mxCell>
        <mxCell id="tLa2hY0cK8lAH2d8xIMi-1" value="&lt;b&gt;&lt;font face=&quot;Comic Sans MS&quot;&gt;html&lt;/font&gt;&lt;/b&gt;" style="rounded=0;whiteSpace=wrap;html=1;fillColor=#f8cecc;strokeColor=#b85450;glass=0;shadow=0;sketch=1;curveFitting=1;jiggle=2;" parent="1" vertex="1">
          <mxGeometry x="-160" y="310" width="360" height="60" as="geometry" />
        </mxCell>
        <mxCell id="tLa2hY0cK8lAH2d8xIMi-21" value="" style="edgeStyle=none;rounded=0;orthogonalLoop=1;jettySize=auto;html=1;shape=link;textOpacity=10;opacity=10;" parent="1" source="tLa2hY0cK8lAH2d8xIMi-16" target="tLa2hY0cK8lAH2d8xIMi-20" edge="1">
          <mxGeometry relative="1" as="geometry" />
        </mxCell>
        <mxCell id="tLa2hY0cK8lAH2d8xIMi-23" value="" style="edgeStyle=none;rounded=0;orthogonalLoop=1;jettySize=auto;html=1;shape=link;opacity=10;" parent="1" source="tLa2hY0cK8lAH2d8xIMi-16" target="tLa2hY0cK8lAH2d8xIMi-22" edge="1">
          <mxGeometry relative="1" as="geometry" />
        </mxCell>
        <mxCell id="tLa2hY0cK8lAH2d8xIMi-16" value="&lt;b style=&quot;border-color: var(--border-color);&quot;&gt;&lt;font color=&quot;#000000&quot; face=&quot;Comic Sans MS&quot;&gt;head&lt;/font&gt;&lt;/b&gt;" style="rounded=0;whiteSpace=wrap;html=1;fillColor=#ffe6cc;strokeColor=#d79b00;sketch=1;curveFitting=1;jiggle=2;textOpacity=20;opacity=50;" parent="1" vertex="1">
          <mxGeometry x="-280" y="450" width="120" height="60" as="geometry" />
        </mxCell>
        <mxCell id="tLa2hY0cK8lAH2d8xIMi-26" value="" style="edgeStyle=none;rounded=0;orthogonalLoop=1;jettySize=auto;html=1;shape=link;" parent="1" source="tLa2hY0cK8lAH2d8xIMi-18" target="tLa2hY0cK8lAH2d8xIMi-25" edge="1">
          <mxGeometry relative="1" as="geometry" />
        </mxCell>
        <mxCell id="1rXg1HdzWJENrckpT89q-7" value="" style="edgeStyle=orthogonalEdgeStyle;rounded=0;orthogonalLoop=1;jettySize=auto;html=1;" parent="1" source="tLa2hY0cK8lAH2d8xIMi-18" target="1rXg1HdzWJENrckpT89q-6" edge="1">
          <mxGeometry relative="1" as="geometry" />
        </mxCell>
        <mxCell id="tLa2hY0cK8lAH2d8xIMi-18" value="&lt;b&gt;&lt;font face=&quot;Comic Sans MS&quot; color=&quot;#000000&quot;&gt;body&lt;/font&gt;&lt;/b&gt;" style="rounded=0;whiteSpace=wrap;html=1;fillColor=#ffe6cc;strokeColor=#d79b00;sketch=1;curveFitting=1;jiggle=2;gradientColor=none;" parent="1" vertex="1">
          <mxGeometry x="170" y="450" width="120" height="60" as="geometry" />
        </mxCell>
        <mxCell id="tLa2hY0cK8lAH2d8xIMi-20" value="&lt;b style=&quot;border-color: var(--border-color);&quot;&gt;&lt;font face=&quot;Comic Sans MS&quot; color=&quot;#000000&quot;&gt;link&lt;/font&gt;&lt;/b&gt;" style="rounded=0;whiteSpace=wrap;html=1;fillColor=#d5e8d4;strokeColor=#82b366;sketch=1;curveFitting=1;jiggle=2;opacity=50;textOpacity=20;" parent="1" vertex="1">
          <mxGeometry x="-380" y="590" width="120" height="60" as="geometry" />
        </mxCell>
        <mxCell id="tLa2hY0cK8lAH2d8xIMi-22" value="&lt;b style=&quot;border-color: var(--border-color);&quot;&gt;&lt;font face=&quot;Comic Sans MS&quot; color=&quot;#000000&quot;&gt;meta&lt;/font&gt;&lt;/b&gt;" style="rounded=0;whiteSpace=wrap;html=1;fillColor=#d5e8d4;strokeColor=#82b366;sketch=1;curveFitting=1;jiggle=2;opacity=50;textOpacity=20;" parent="1" vertex="1">
          <mxGeometry x="-170" y="590" width="120" height="60" as="geometry" />
        </mxCell>
        <mxCell id="tLa2hY0cK8lAH2d8xIMi-30" value="" style="edgeStyle=none;orthogonalLoop=1;jettySize=auto;html=1;curved=1;shape=link;" parent="1" source="tLa2hY0cK8lAH2d8xIMi-25" target="tLa2hY0cK8lAH2d8xIMi-29" edge="1">
          <mxGeometry relative="1" as="geometry" />
        </mxCell>
        <mxCell id="1rXg1HdzWJENrckpT89q-9" value="" style="edgeStyle=orthogonalEdgeStyle;rounded=0;orthogonalLoop=1;jettySize=auto;html=1;" parent="1" source="tLa2hY0cK8lAH2d8xIMi-25" target="1rXg1HdzWJENrckpT89q-8" edge="1">
          <mxGeometry relative="1" as="geometry" />
        </mxCell>
        <mxCell id="tLa2hY0cK8lAH2d8xIMi-25" value="&lt;b&gt;&lt;font face=&quot;Comic Sans MS&quot; color=&quot;#000000&quot;&gt;p&lt;/font&gt;&lt;/b&gt;" style="rounded=0;whiteSpace=wrap;html=1;fillColor=#d5e8d4;strokeColor=#82b366;sketch=1;curveFitting=1;jiggle=2;" parent="1" vertex="1">
          <mxGeometry x="40" y="590" width="120" height="60" as="geometry" />
        </mxCell>
        <mxCell id="1rXg1HdzWJENrckpT89q-11" value="" style="edgeStyle=elbowEdgeStyle;rounded=0;orthogonalLoop=1;jettySize=auto;html=1;opacity=10;" parent="1" source="tLa2hY0cK8lAH2d8xIMi-27" target="1rXg1HdzWJENrckpT89q-10" edge="1">
          <mxGeometry relative="1" as="geometry" />
        </mxCell>
        <mxCell id="tLa2hY0cK8lAH2d8xIMi-27" value="&lt;b style=&quot;&quot;&gt;&lt;font face=&quot;Comic Sans MS&quot; color=&quot;#000000&quot;&gt;img&lt;/font&gt;&lt;/b&gt;" style="rounded=0;whiteSpace=wrap;html=1;sketch=1;curveFitting=1;jiggle=2;fillColor=#d5e8d4;strokeColor=#82b366;opacity=50;textOpacity=20;" parent="1" vertex="1">
          <mxGeometry x="320" y="590" width="120" height="60" as="geometry" />
        </mxCell>
        <mxCell id="1rXg1HdzWJENrckpT89q-13" value="" style="edgeStyle=elbowEdgeStyle;rounded=0;orthogonalLoop=1;jettySize=auto;html=1;" parent="1" source="tLa2hY0cK8lAH2d8xIMi-29" target="1rXg1HdzWJENrckpT89q-12" edge="1">
          <mxGeometry relative="1" as="geometry" />
        </mxCell>
        <mxCell id="tLa2hY0cK8lAH2d8xIMi-29" value="&lt;b&gt;&lt;font face=&quot;Comic Sans MS&quot; color=&quot;#000000&quot;&gt;span&lt;/font&gt;&lt;br&gt;&lt;/b&gt;" style="rounded=0;whiteSpace=wrap;html=1;fillColor=#e1d5e7;strokeColor=#9673a6;sketch=1;curveFitting=1;jiggle=2;" parent="1" vertex="1">
          <mxGeometry x="-110" y="750" width="120" height="60" as="geometry" />
        </mxCell>
        <mxCell id="1rXg1HdzWJENrckpT89q-6" value="font-size: 14px;&lt;br style=&quot;border-color: var(--border-color); font-family: &amp;quot;Comic Sans MS&amp;quot;;&quot;&gt;&lt;span style=&quot;font-family: &amp;quot;Comic Sans MS&amp;quot;;&quot;&gt;width: 100%;&lt;/span&gt;" style="whiteSpace=wrap;html=1;fillStyle=auto;dashed=1;" parent="1" vertex="1">
          <mxGeometry x="380" y="420" width="120" height="90" as="geometry" />
        </mxCell>
        <mxCell id="1rXg1HdzWJENrckpT89q-8" value="&lt;font style=&quot;border-color: var(--border-color);&quot; face=&quot;Comic Sans MS&quot;&gt;&lt;font style=&quot;border-color: var(--border-color);&quot; color=&quot;#999999&quot;&gt;font-size: 14px;&lt;br style=&quot;border-color: var(--border-color);&quot;&gt;&lt;/font&gt;&lt;/font&gt;width: 50%;&lt;font style=&quot;border-color: var(--border-color);&quot; face=&quot;Comic Sans MS&quot;&gt;&lt;font style=&quot;border-color: var(--border-color);&quot; color=&quot;#999999&quot;&gt;&lt;br style=&quot;border-color: var(--border-color);&quot;&gt;&lt;/font&gt;color: red;&lt;/font&gt;" style="whiteSpace=wrap;html=1;fillStyle=auto;dashed=1;" parent="1" vertex="1">
          <mxGeometry x="-50" y="460" width="120" height="90" as="geometry" />
        </mxCell>
        <mxCell id="1rXg1HdzWJENrckpT89q-10" value="&lt;font color=&quot;#999999&quot;&gt;f&lt;/font&gt;&lt;font style=&quot;border-color: var(--border-color);&quot; color=&quot;#999999&quot;&gt;font-size: 14px;&lt;br style=&quot;border-color: var(--border-color); font-family: &amp;quot;Comic Sans MS&amp;quot;;&quot;&gt;width: 100%;&lt;/font&gt;&lt;font style=&quot;border-color: var(--border-color);&quot; color=&quot;#999999&quot;&gt;&lt;br style=&quot;border-color: var(--border-color);&quot;&gt;&lt;/font&gt;display: none;" style="whiteSpace=wrap;html=1;fillStyle=auto;shadow=0;dashed=1;opacity=50;textOpacity=50;" parent="1" vertex="1">
          <mxGeometry x="500" y="575" width="120" height="90" as="geometry" />
        </mxCell>
        <mxCell id="1rXg1HdzWJENrckpT89q-12" value="&lt;font style=&quot;border-color: var(--border-color);&quot; color=&quot;#999999&quot;&gt;font-size: 14px;&lt;br style=&quot;border-color: var(--border-color);&quot;&gt;color: red;&lt;br style=&quot;border-color: var(--border-color);&quot;&gt;width: 50%;&lt;br style=&quot;border-color: var(--border-color);&quot;&gt;&lt;/font&gt;display: block;" style="whiteSpace=wrap;html=1;fillStyle=auto;dashed=1;fontFamily=Comic Sans MS;" parent="1" vertex="1">
          <mxGeometry x="120" y="720" width="120" height="90" as="geometry" />
        </mxCell>
      </root>
    </mxGraphModel>
  </diagram>
</mxfile>
